<?xml version="1.0" encoding="utf-8"?>
<svg viewBox="149.3418 93.5521 183.3975 68.4298" xmlns="http://www.w3.org/2000/svg">
	<path d="M 187.335 156.186 Q 185.251 156.186 181.356 158.18 Q 177.46 160.173 174.108 162.347 Q 170.755 164.522 169.759 165.246 L 157.075 173.491 Q 157.89 173.763 159.974 174.397 Q 162.058 175.031 163.689 175.575 Q 164.504 175.756 166.86 176.843 Q 178.185 181.554 184.164 182.642 Q 187.879 183.276 187.879 185.088 Q 187.879 185.994 187.154 186.537 Q 186.429 187.081 184.255 187.081 Q 181.809 187.081 178.003 185.813 Q 174.198 184.544 168.672 182.279 Q 162.148 179.652 160.246 179.199 Q 156.259 178.021 153.994 176.526 Q 151.729 175.031 151.729 173.944 Q 151.729 171.86 158.162 168.146 Q 166.407 162.075 175.285 156.639 Q 184.164 151.203 188.151 151.203 Q 189.781 151.203 190.461 151.611 Q 191.14 152.019 191.14 152.925 Q 191.14 154.646 190.053 155.416 Q 188.966 156.186 187.335 156.186 Z M 220.844 130.184 Q 219.395 135.53 215.499 147.398 Q 210.153 164.431 207.888 172.132 Q 204.083 185.178 202.452 194.963 Q 201.999 197.862 201.637 198.95 Q 201.365 199.856 200.731 200.399 Q 200.097 200.943 199.281 200.943 Q 198.828 200.943 198.557 200.852 Q 197.469 200.58 197.469 197.409 Q 197.469 193.876 198.647 188.168 Q 199.825 182.46 200.55 180.105 Q 202.452 173.4 205.533 164.069 Q 206.076 162.347 207.662 157.5 Q 209.247 152.653 210.516 148.032 Q 211.059 146.22 212.509 140.422 L 215.136 130.818 Q 216.495 126.017 217.945 122.393 Q 218.67 121.034 219.938 121.034 Q 220.391 121.034 220.663 121.124 Q 221.931 121.487 221.931 123.933 Q 221.931 126.47 220.844 130.184 Z M 268.955 186.447 Q 268.955 187.534 268.049 188.938 Q 267.143 190.343 266.237 190.343 Q 264.696 190.343 263.881 188.44 Q 263.066 186.537 263.066 184.001 Q 263.066 181.826 263.337 170.954 L 263.428 167.511 Q 263.428 165.428 262.341 164.522 Q 258.264 171.407 254.73 176.481 Q 251.197 181.554 245.761 186.039 Q 240.325 190.524 234.345 190.524 Q 231.446 190.524 229.861 188.712 Q 228.275 186.9 228.275 184.001 Q 228.275 180.377 231.537 174.08 Q 234.798 167.783 239.872 161.305 Q 244.946 154.827 250.019 150.66 Q 253.371 147.942 255.365 146.99 Q 257.358 146.039 258.898 146.039 Q 260.348 146.039 261.888 146.945 Q 263.428 147.851 264.515 149.482 Q 265.602 151.113 265.602 153.197 Q 265.602 156.005 264.062 158.542 L 265.602 158.089 Q 266.599 158.089 266.78 160.535 Q 266.871 161.985 267.007 166.424 Q 267.143 170.864 267.233 173.763 Q 267.324 176.753 267.414 179.561 Q 267.505 182.37 267.596 184.001 Q 267.686 184.635 268.32 185.314 Q 268.955 185.994 268.955 186.447 Z M 261.072 160.988 Q 262.16 158.27 262.16 155.099 Q 262.16 153.197 261.027 151.792 Q 259.895 150.388 257.992 150.388 Q 255.727 150.388 252.194 153.468 Q 248.117 156.911 243.587 162.664 Q 239.057 168.417 236.067 174.035 Q 233.077 179.652 233.077 182.913 Q 233.077 185.631 235.614 185.631 Q 240.506 185.631 245.036 182.007 Q 249.566 178.383 253.145 173.355 Q 256.724 168.327 261.072 160.988 Z M 281.722 130.818 Q 280.001 130.818 278.642 129.776 Q 277.283 128.735 276.467 127.466 Q 275.652 126.198 275.652 125.564 Q 275.652 124.567 276.603 123.661 Q 277.554 122.755 278.551 122.755 Q 279.185 122.755 279.684 123.344 Q 280.182 123.933 280.816 125.111 Q 281.45 126.379 282.084 127.013 Q 282.356 127.285 283.217 128.146 Q 284.078 129.006 284.078 129.278 Q 284.078 130.818 281.722 130.818 Z M 277.554 207.375 Q 273.749 207.375 271.031 206.062 Q 268.313 204.748 266.954 202.936 Q 265.595 201.124 265.595 199.493 Q 265.595 198.768 266.184 198.044 Q 266.773 197.319 267.135 197.319 Q 267.679 197.319 267.996 197.772 Q 268.313 198.225 268.494 198.497 Q 270.306 200.943 272.073 202.211 Q 273.84 203.48 276.377 203.48 Q 280.363 203.48 281.903 200.807 Q 283.443 198.134 283.443 192.608 Q 283.443 189.618 283.036 185.133 Q 282.628 180.648 282.175 176.662 Q 282.084 175.394 281.903 174.125 Q 281.722 172.857 281.631 171.588 Q 281.088 165.428 279.819 157.183 Q 278.913 151.113 278.913 149.573 Q 278.913 148.304 279.185 147.896 Q 279.457 147.489 280.635 147.489 Q 282.266 147.489 283.126 149.708 Q 283.987 151.928 284.349 156.458 Q 284.712 161.894 285.98 172.132 Q 287.792 188.802 287.792 192.155 Q 287.792 199.765 284.984 203.57 Q 282.175 207.375 277.554 207.375 Z M 336.625 186.447 Q 336.625 187.534 335.719 188.938 Q 334.813 190.343 333.907 190.343 Q 332.366 190.343 331.551 188.44 Q 330.736 186.537 330.736 184.001 Q 330.736 181.826 331.007 170.954 L 331.098 167.511 Q 331.098 165.428 330.011 164.522 Q 325.934 171.407 322.4 176.481 Q 318.867 181.554 313.431 186.039 Q 307.995 190.524 302.015 190.524 Q 299.116 190.524 297.531 188.712 Q 295.945 186.9 295.945 184.001 Q 295.945 180.377 299.207 174.08 Q 302.468 167.783 307.542 161.305 Q 312.616 154.827 317.689 150.66 Q 321.041 147.942 323.035 146.99 Q 325.028 146.039 326.568 146.039 Q 328.018 146.039 329.558 146.945 Q 331.098 147.851 332.185 149.482 Q 333.272 151.113 333.272 153.197 Q 333.272 156.005 331.732 158.542 L 333.272 158.089 Q 334.269 158.089 334.45 160.535 Q 334.541 161.985 334.677 166.424 Q 334.813 170.864 334.903 173.763 Q 334.994 176.753 335.084 179.561 Q 335.175 182.37 335.266 184.001 Q 335.356 184.635 335.99 185.314 Q 336.625 185.994 336.625 186.447 Z M 328.742 160.988 Q 329.83 158.27 329.83 155.099 Q 329.83 153.197 328.697 151.792 Q 327.565 150.388 325.662 150.388 Q 323.397 150.388 319.864 153.468 Q 315.787 156.911 311.257 162.664 Q 306.727 168.417 303.737 174.035 Q 300.747 179.652 300.747 182.913 Q 300.747 185.631 303.284 185.631 Q 308.176 185.631 312.706 182.007 Q 317.236 178.383 320.815 173.355 Q 324.394 168.327 328.742 160.988 Z M 374.682 158.814 Q 373.595 166.787 373.504 167.783 Q 372.327 178.927 371.828 184.771 Q 371.33 190.614 371.33 195.326 Q 371.33 199.221 371.919 201.486 Q 372.508 203.751 373.187 205.065 Q 373.867 206.379 373.867 206.651 Q 373.867 207.466 372.417 208.1 Q 370.968 208.734 369.427 208.734 Q 368.25 208.734 367.57 205.563 Q 366.891 202.392 366.891 195.688 Q 366.891 190.614 367.887 182.007 L 369.246 169.505 Q 366.8 174.216 363.221 178.519 Q 359.643 182.823 355.837 182.823 Q 352.304 182.823 349.495 176.662 Q 346.687 170.501 345.101 162.71 Q 343.516 154.918 343.516 151.294 Q 343.516 149.029 344.875 149.029 Q 346.868 149.029 347.412 152.744 Q 350.854 177.93 357.015 177.93 Q 359.461 177.93 361.319 175.982 Q 363.176 174.035 365.713 169.958 Q 366.891 168.055 368.25 164.884 Q 369.609 161.713 370.333 159.629 L 370.968 150.479 Q 371.149 148.395 371.511 147.534 Q 371.874 146.673 372.961 146.673 Q 373.867 146.673 374.773 147.715 Q 375.679 148.757 375.679 149.754 Q 375.679 151.838 374.682 158.814 Z M 411.271 179.199 Q 409.369 179.652 402.846 182.279 Q 397.319 184.544 393.514 185.813 Q 389.709 187.081 387.262 187.081 Q 385.088 187.081 384.363 186.537 Q 383.638 185.994 383.638 185.088 Q 383.638 183.276 387.353 182.642 Q 393.333 181.554 404.658 176.843 Q 407.013 175.756 407.829 175.575 Q 409.459 175.031 411.543 174.397 Q 413.627 173.763 414.442 173.491 L 400.218 163.525 Q 398.678 162.528 394.148 159.448 Q 389.618 156.368 387.715 154.918 Q 386.447 153.921 385.994 153.332 Q 385.541 152.744 385.541 151.747 Q 385.541 150.932 386.764 150.388 Q 387.987 149.844 389.165 149.844 Q 389.437 149.844 394.193 153.423 Q 398.95 157.002 401.849 159.176 Q 406.288 162.619 412.993 167.602 Q 415.439 169.052 417.613 170.818 Q 419.788 172.585 419.788 173.944 Q 419.788 175.031 417.523 176.526 Q 415.258 178.021 411.271 179.199 Z" transform="matrix(0.683573007584, 0.002397000091, -0.001820000238, 0.772944808006, -39.257958148762, -43.610118354674)" style="fill: rgb(100, 100, 100); transform-origin: 268.34px 193.297px;" />
</svg>
