<?xml version="1.0" encoding="utf-8"?>
<svg viewBox="142.2196 99.7082 86.7269 32.3466" xmlns="http://www.w3.org/2000/svg">
	<path d="M 141.818 100.152 Q 141.853 100.199 142.026 100.283 Q 142.199 100.368 142.208 100.368 Q 142.258 100.392 142.346 100.462 Q 142.431 100.532 142.51 100.565 Q 143.517 100.998 143.652 101.073 Q 143.787 101.148 143.787 101.303 Q 143.787 101.379 143.705 101.47 Q 143.623 101.561 143.535 101.561 Q 143.52 101.561 143.348 101.464 Q 142.724 101.118 142.366 100.972 Q 142.146 100.887 141.695 100.623 Q 141.244 100.36 141.244 100.242 Q 141.244 100.166 141.303 100.053 Q 141.361 99.941 141.695 99.698 Q 141.736 99.668 141.748 99.654 Q 142.017 99.308 142.694 98.807 Q 143.087 98.517 143.186 98.406 Q 143.277 98.3 143.32 98.278 Q 143.362 98.256 143.433 98.256 Q 143.515 98.256 143.576 98.306 Q 143.638 98.356 143.638 98.435 Q 143.638 98.675 142.51 99.504 Q 142.398 99.586 142.24 99.75 Q 142.111 99.879 141.818 100.152 Z M 146.494 100.987 Q 146.084 101.537 145.682 101.813 Q 145.281 102.088 144.947 102.088 Q 144.721 102.088 144.557 101.898 Q 144.393 101.707 144.393 101.408 Q 144.393 100.638 145.082 99.749 Q 145.77 98.86 146.45 98.86 Q 146.696 98.86 146.816 99.141 Q 146.854 99.235 146.936 99.235 Q 147.171 99.235 147.171 99.416 Q 147.171 99.507 147.141 99.665 Q 146.983 100.53 146.983 100.884 Q 146.983 101.593 147.253 101.734 Q 147.381 101.804 147.381 101.907 Q 147.381 101.997 147.255 102.09 Q 147.13 102.182 147.012 102.182 Q 146.787 102.182 146.64 101.871 Q 146.494 101.561 146.494 100.987 Z M 146.315 99.337 Q 145.928 99.337 145.416 100.062 Q 144.903 100.787 144.903 101.265 Q 144.903 101.602 145.126 101.602 Q 145.448 101.602 146.019 100.951 Q 146.59 100.301 146.59 99.756 Q 146.59 99.337 146.315 99.337 Z M 148.858 97.316 L 148.867 97.316 Q 148.949 97.316 149.113 97.374 Q 149.277 97.433 149.328 97.472 Q 149.38 97.512 149.38 97.606 Q 149.38 97.787 149.213 97.924 Q 149.046 98.06 148.964 98.06 Q 148.823 98.06 148.717 97.937 Q 148.612 97.814 148.612 97.691 Q 148.612 97.374 148.858 97.316 Z M 147.672 103.913 Q 147.323 103.913 146.996 103.622 Q 146.67 103.33 146.67 103.119 Q 146.67 103.061 146.711 103.004 Q 146.752 102.947 146.772 102.947 Q 146.793 102.947 146.863 103.005 Q 147.323 103.409 147.604 103.409 Q 147.836 103.409 148.003 103.188 Q 148.17 102.967 148.243 102.368 Q 148.316 101.769 148.381 100.506 Q 148.424 99.595 148.458 99.349 Q 148.492 99.103 148.597 99.005 Q 148.703 98.907 148.867 98.907 Q 148.952 98.907 149.027 98.972 Q 149.101 99.038 149.101 99.132 Q 149.101 99.185 149.081 99.276 Q 148.867 100.201 148.802 101.687 Q 148.761 102.583 148.635 103.014 Q 148.509 103.445 148.247 103.679 Q 147.985 103.913 147.672 103.913 Z M 151.949 100.987 Q 151.538 101.537 151.137 101.813 Q 150.736 102.088 150.402 102.088 Q 150.176 102.088 150.012 101.898 Q 149.848 101.707 149.848 101.408 Q 149.848 100.638 150.536 99.749 Q 151.225 98.86 151.905 98.86 Q 152.151 98.86 152.271 99.141 Q 152.309 99.235 152.391 99.235 Q 152.625 99.235 152.625 99.416 Q 152.625 99.507 152.596 99.665 Q 152.438 100.53 152.438 100.884 Q 152.438 101.593 152.707 101.734 Q 152.836 101.804 152.836 101.907 Q 152.836 101.997 152.71 102.09 Q 152.584 102.182 152.467 102.182 Q 152.242 102.182 152.095 101.871 Q 151.949 101.561 151.949 100.987 Z M 151.77 99.337 Q 151.383 99.337 150.87 100.062 Q 150.358 100.787 150.358 101.265 Q 150.358 101.602 150.58 101.602 Q 150.903 101.602 151.474 100.951 Q 152.045 100.301 152.045 99.756 Q 152.045 99.337 151.77 99.337 Z M 155.66 101.019 Q 155.121 101.488 154.713 101.7 Q 154.304 101.912 154.087 101.912 Q 153.797 101.912 153.643 101.671 Q 153.49 101.429 153.49 101.107 Q 153.49 100.656 153.673 99.992 Q 153.856 99.328 153.945 99.204 Q 154.034 99.079 154.231 99.079 Q 154.313 99.079 154.366 99.176 Q 154.418 99.273 154.418 99.396 Q 154.418 99.469 154.351 99.586 Q 154.193 99.862 154.185 99.891 Q 154.178 99.92 154.073 100.244 Q 153.967 100.568 153.967 100.852 Q 153.967 100.951 154.015 101.162 Q 154.064 101.373 154.216 101.373 Q 154.377 101.373 154.613 101.275 Q 154.849 101.177 155.145 100.954 Q 155.441 100.732 155.543 100.594 Q 155.646 100.456 155.688 100.281 Q 155.731 100.105 155.748 99.519 Q 155.766 98.933 156.033 98.933 Q 156.191 98.933 156.238 99.016 Q 156.284 99.1 156.284 99.334 Q 156.284 99.528 156.258 99.818 Q 156.226 100.184 156.217 100.339 Q 156.176 101.145 156.008 101.958 Q 155.839 102.771 155.517 103.317 Q 155.195 103.864 154.629 103.864 Q 154.055 103.864 153.608 103.563 Q 153.161 103.263 153.161 103.055 Q 153.161 102.958 153.207 102.865 Q 153.252 102.771 153.323 102.771 Q 153.358 102.771 153.399 102.826 Q 153.783 103.415 154.606 103.415 Q 155.031 103.415 155.319 102.67 Q 155.608 101.924 155.637 101.271 Q 155.643 101.145 155.66 101.019 Z M 156.829 102.437 Q 156.756 102.437 156.68 102.361 Q 156.604 102.284 156.604 102.208 Q 156.604 102.156 156.749 101.851 Q 156.894 101.546 157.209 101.064 Q 157.524 100.582 157.781 100.24 Q 157.808 100.204 157.825 100.175 Q 158.013 99.87 158.376 99.343 Q 158.769 98.783 159.07 98.282 Q 159.211 98.051 159.445 97.742 Q 159.68 97.433 159.782 97.433 Q 159.841 97.433 159.929 97.538 Q 160.017 97.644 160.017 97.708 Q 160.017 97.823 159.618 98.37 Q 158.757 99.545 157.966 100.726 Q 157.869 100.869 157.694 101.121 Q 157.401 101.555 157.336 101.707 Q 157.272 101.86 157.074 102.148 Q 156.876 102.437 156.829 102.437 Z M 162.53 100.049 Q 162.363 99.829 162.173 99.736 Q 162.065 99.68 161.748 99.507 Q 161.411 99.32 161.221 99.223 Q 160.957 99.094 160.773 98.904 Q 160.588 98.713 160.588 98.514 Q 160.588 98.37 160.732 98.37 Q 160.802 98.37 161.066 98.573 Q 161.265 98.725 161.785 99.053 Q 162.305 99.381 162.662 99.574 Q 163.137 99.818 163.176 99.885 Q 163.216 99.952 163.216 100.032 Q 163.216 100.116 162.633 100.524 Q 162.583 100.556 162.457 100.658 Q 162.331 100.761 162.135 100.975 L 161.652 101.499 Q 161.505 101.66 161.411 101.737 Q 161.318 101.813 161.23 101.813 Q 161.148 101.813 161.066 101.742 Q 160.984 101.672 160.984 101.584 Q 160.984 101.488 161.154 101.359 Q 161.206 101.321 161.259 101.268 Q 161.678 100.773 162.073 100.445 Q 162.393 100.199 162.53 100.049 Z" transform="matrix(3.94715404510498, 0, 0, 4.903225898742675, -415.292266845703, -377.4541625976562)" style="fill: rgb(100, 100, 100);" />
</svg>
