<?xml version="1.0" encoding="UTF-8" standalone="no"?>
<!-- Created with Inkscape (http://www.inkscape.org/) -->

<svg
   width="512"
   height="512"
   viewBox="0 0 512 512"
   version="1.1"
   id="svg1"
   xmlns="http://www.w3.org/2000/svg"
   xmlns:svg="http://www.w3.org/2000/svg">
  <defs
     id="defs1" />
  <g
     id="layer1">
    <path
       id="rect1"
       style="display:inline;fill:#8b3deb;stroke-width:4.514"
       d="M 0,27.153151 V 482.17498 A 29.825024,29.825024 45 0 0 29.825024,512 H 483.0656 A 28.934398,28.934398 135 0 0 512,483.0656 V 28.043775 A 28.043775,28.043775 45 0 0 483.95623,0 H 27.153151 A 27.153151,27.153151 135 0 0 0,27.153151 Z M 324.36719,6.3847656 c 3.39452,-0.040031 6.81754,0.2514719 10.08984,1.1953125 4.09206,1.1198802 8.10823,3.4929939 10.0918,7.3789059 1.60907,2.998325 1.11634,6.498604 0.94726,9.75 -1.78738,35.456677 -5.59302,70.75938 -8.09179,106.158206 -1.21888,16.6513 -1.97815,33.339 -2.47461,50.00781 -0.60959,20.60111 -0.78058,41.21969 -0.23438,61.82422 4.86928,-3.23949 9.33807,-7.12344 13.00586,-11.69141 0.36198,-0.43893 0.84879,-1.07475 1.10547,-1.41406 5.34099,-7.05371 8.59306,-15.52129 10.10156,-24.19922 0.2505,-1.40463 0.4433,-2.96205 0.55274,-4.29297 0.34447,-3.97675 0.34655,-7.97563 0.73242,-11.94922 0.52184,-5.29458 1.50103,-10.84199 4.79492,-15.18359 2.70738,-3.76883 7.28926,-5.89711 11.87305,-6.05078 6.46535,-0.10623 13.05952,2.09015 17.90039,6.4375 4.80709,4.29577 7.2583,10.66124 7.94726,16.95898 0.89141,8.98575 -0.85372,18.01607 -3.5371,26.56641 -4.39109,14.47346 -12.88264,27.66991 -24.2461,37.65234 -11.19406,9.93976 -24.74506,16.88119 -38.80469,21.80469 0.52708,7.70229 1.0933,15.39637 1.79102,23.06055 1.72056,18.56917 4.00276,37.0878 7.10937,55.42773 2.0483,12.06807 4.4919,24.07698 7.38868,35.90235 2.9464,11.99818 6.41533,23.875 10.47656,35.51953 0.51077,1.49482 1.09745,3.11371 1.60547,4.51562 1.21477,3.28313 2.49007,6.54413 3.89258,9.75195 0.4641,1.08975 0.97808,2.19719 1.50585,3.34766 4.36973,9.30042 9.88672,18.31231 17.71094,25.11328 3.92207,3.26061 8.23662,6.36824 13.28321,7.55469 5.4588,1.19547 11.14867,-0.6227 15.69921,-3.65234 6.69905,-4.37969 11.88848,-10.71052 16.01368,-17.49414 0.9952,-1.747 2.07605,-3.85472 3.52148,-5.45704 2.91748,-3.40308 7.74775,-4.99129 12.11133,-3.96484 4.59536,0.98454 8.29927,4.81561 9.46094,9.32227 0.93518,3.16405 0.25169,6.51116 -0.80079,9.55273 -3.56582,11.21738 -10.81991,21.21157 -20.38085,28.07617 -12.78012,9.17965 -29.057,12.99685 -44.63282,11.32813 -10.05681,-0.98434 -19.77544,-4.54507 -28.32617,-9.88477 C 352.73983,488.72818 343.8703,479.26171 337.0625,468.625 328.43294,455.1511 322.78324,440.03518 318.15234,424.79297 304.70019,380.2209 297.12946,334.0169 293.75977,287.62695 c -15.4782,2.49467 -31.11447,3.92783 -46.54688,6.72461 -0.58129,0.14095 -1.37042,0.0284 -1.41992,0.81836 -15.88479,39.68101 -34.89965,78.347 -59.56641,113.35938 -6.64058,9.27132 -13.33729,18.53063 -20.8164,27.15234 -8.02732,9.23496 -17.11673,17.8074 -27.94727,23.66406 -9.81088,5.40665 -21.12019,8.01256 -32.30664,7.51368 -9.950763,-0.32047 -19.844803,-3.58656 -27.822266,-9.58594 -8.790485,-6.5773 -14.940072,-16.21183 -18.394531,-26.54492 -2.227985,-6.74699 -3.384498,-13.79832 -4.171875,-20.84375 -2.451297,-23.33857 0.400909,-46.95658 6.046875,-69.64258 4.372544,-17.24822 10.101378,-34.22398 18.078125,-50.15821 6.349721,-12.64313 14.214759,-24.7261 24.595702,-34.4414 5.05613,-4.88596 11.03522,-8.82842 17.58594,-11.40235 10.6677,-4.19681 22.75193,-5.2977 33.82226,-2.03125 8.47837,2.40758 16.09014,7.83282 20.96875,15.19141 5.15349,7.86326 7.35415,17.3418 7.58789,26.65625 12.90327,-7.25768 27.19182,-11.66491 41.60157,-14.78711 2.94069,-7.62663 5.79138,-15.21648 8.59179,-22.87109 8.70407,-23.74627 16.81948,-47.71831 24.57618,-71.81446 11.03285,-34.35101 21.29498,-69.01484 30.99414,-103.781246 4.83372,-17.197596 9.39032,-34.472254 14.16406,-51.685546 0.58796,-3.002792 2.11542,-5.861161 4.53125,-7.783204 4.66075,-3.6047983 10.68975,-4.7644895 16.45508,-4.9492184 z M 293.12305,152.11719 c -6.73433,22.9931 -13.43549,45.99815 -20.7793,68.80469 -4.65556,14.36489 -9.46951,28.68062 -14.63477,42.87109 1.228,-0.17289 2.4556,-0.34664 3.6836,-0.51953 10.27991,-1.44053 20.65619,-2.93197 30.77148,-5.00391 -1.2387,-31.71346 -0.96951,-63.47899 0.45313,-95.18164 z M 146.36133,270.47266 c -0.27964,-0.002 -0.55884,0.003 -0.83789,0.0215 -3.12261,0.0701 -5.85257,1.85806 -8.10352,3.87695 -4.03866,3.61228 -7.25307,8.04251 -10.17969,12.57422 -6.50572,10.21892 -11.83735,21.27027 -16.24609,32.45703 -1.14796,2.92455 -2.24992,5.93332 -3.29492,8.96094 -0.85973,2.50501 -1.67806,5.08055 -2.4336,7.67383 -2.84439,9.67061 -4.94627,19.67873 -6.267573,29.58789 -0.800794,6.0263 -1.325379,12.06484 -1.576172,18.08789 -0.146163,3.65335 -0.202148,7.35289 -0.142578,11.0625 0.0449,3.36914 0.204763,6.74165 0.40625,10.15234 0.06311,0.85477 0.150911,2.11733 0.207031,2.95899 0.560902,7.10621 1.667715,14.27755 4.525392,20.85937 0.18939,0.46978 0.51836,1.17202 0.66211,1.4668 0.48754,0.99079 1.02846,1.95721 1.66406,2.86133 1.6058,2.44407 4.24526,4.37706 7.25,4.44726 5.6308,-0.13473 11.02925,-2.24138 15.88086,-4.98437 8.43076,-4.8889 15.50575,-11.76079 21.9082,-19.0332 1.06947,-1.22356 2.10974,-2.46 3.17578,-3.76563 1.29749,-1.57352 2.63105,-3.27113 3.82618,-4.82617 6.51679,-8.5317 12.38626,-17.54132 17.85742,-26.77344 13.77975,-23.34666 25.33297,-47.93092 35.95117,-72.85156 -3.95796,1.82713 -7.81659,3.87166 -11.54297,6.13477 -12.11946,7.29085 -22.36887,17.2794 -31.41601,28.06445 -2.71548,2.98518 -4.54744,6.66891 -7.42188,9.51758 -1.53023,1.79801 -3.48359,3.25582 -5.72461,4.03906 -4.6325,1.51223 -9.87691,1.66595 -14.39258,-0.33203 -3.33316,-1.44351 -5.7246,-5.04361 -5.31054,-8.71875 0.30706,-2.23707 1.41133,-4.25194 2.12695,-6.3711 2.21751,-5.73289 4.19117,-11.47827 6.08594,-17.34179 1.20151,-3.73956 2.33864,-7.51858 3.38281,-11.37696 0.52222,-1.91912 1.03918,-3.96739 1.49023,-5.82422 1.50493,-6.43178 2.80974,-12.94691 3.14258,-19.55859 0.0643,-3.60024 0.19461,-7.37773 -1.29101,-10.74414 -0.44342,-1.42007 -1.88231,-2.38623 -3.36133,-2.30273 z" />
  </g>
</svg>
