<?xml version="1.0" encoding="UTF-8" standalone="no"?>
<!-- Created with Inkscape (http://www.inkscape.org/) -->

<svg
   width="512"
   height="512"
   viewBox="0 0 512 512"
   version="1.1"
   id="svg1"
   xmlns:inkscape="http://www.inkscape.org/namespaces/inkscape"
   xmlns:sodipodi="http://sodipodi.sourceforge.net/DTD/sodipodi-0.dtd"
   xmlns="http://www.w3.org/2000/svg"
   xmlns:svg="http://www.w3.org/2000/svg">
  <sodipodi:namedview
     id="namedview1"
     pagecolor="#ffffff"
     bordercolor="#000000"
     borderopacity="0.25"
     inkscape:showpageshadow="2"
     inkscape:pageopacity="0.0"
     inkscape:pagecheckerboard="0"
     inkscape:deskcolor="#d1d1d1"
     inkscape:document-units="px"
     inkscape:zoom="0.79394531"
     inkscape:cx="201.52522"
     inkscape:cy="227.34563"
     inkscape:window-width="1920"
     inkscape:window-height="1009"
     inkscape:window-x="-8"
     inkscape:window-y="-8"
     inkscape:window-maximized="1"
     inkscape:current-layer="layer1" />
  <defs
     id="defs1" />
  <g
     inkscape:label="Layer 1"
     inkscape:groupmode="layer"
     id="layer1">
    <path
       id="text1"
       style="font-size:337.437px;font-family:Angelina;-inkscape-font-specification:Angelina;fill:#8b3deb;fill-opacity:1;stroke-width:126.932"
       d="m 324.36719,6.3847656 c -5.76533,0.1847291 -11.79439,1.3434981 -16.45515,4.9483004 -2.41583,1.922045 -3.94392,4.78075 -4.53188,7.783545 -4.77374,17.21331 -9.32972,34.487895 -14.16345,51.685509 -9.69917,34.76644 -19.96119,69.43081 -30.99405,103.78186 -7.7567,24.09617 -15.87265,48.0677 -24.57672,71.81399 -2.80042,7.65462 -5.65055,15.24492 -8.59125,22.87156 -14.40976,3.1222 -28.69829,7.52942 -41.60157,14.78711 -0.23375,-9.31446 -2.43532,-18.79224 -7.58881,-26.65551 -4.87862,-7.3586 -12.49024,-12.78494 -20.96861,-15.19252 -11.07035,-3.26646 -23.15345,-2.16592 -33.82116,2.0309 -6.55073,2.57393 -12.53013,6.51711 -17.58626,11.40307 -10.380955,9.71531 -18.245793,21.79898 -24.59552,34.44213 -7.976755,15.93424 -13.705759,32.90925 -18.078307,50.15748 -5.645972,22.68603 -8.497219,46.30414 -6.045919,69.64273 0.787378,7.04544 1.942182,14.09744 4.170169,20.84443 3.454462,10.3331 9.605415,19.96659 18.395909,26.54389 7.977471,5.99939 17.871495,9.26563 27.822268,9.5861 11.18646,0.49889 22.4951,-2.10755 32.30599,-7.5142 10.83055,-5.85667 19.92007,-14.42796 27.94739,-23.66293 7.47912,-8.62172 14.17554,-17.88123 20.81613,-27.15256 24.66678,-35.01241 43.68207,-73.67816 59.56687,-113.35921 0.0495,-0.78992 0.8387,-0.67709 1.41999,-0.81804 15.43242,-2.79679 31.06831,-4.23078 46.54652,-6.72545 3.3697,46.38999 10.94034,92.59481 24.39251,137.16692 4.6309,15.24223 10.28072,30.35638 18.91029,43.83029 6.80781,10.63672 15.67722,20.10408 26.48818,26.73333 8.55074,5.3397 18.26865,8.90132 28.32547,9.88566 15.57583,1.66872 31.85342,-2.14943 44.63355,-11.32909 9.56095,-6.86461 16.81556,-16.85966 20.38139,-28.07705 1.05248,-3.04157 1.73445,-6.38789 0.79927,-9.55195 -1.16167,-4.50666 -4.86397,-8.33666 -9.45934,-9.3212 -4.36358,-1.02645 -9.19447,0.56078 -12.11195,3.96387 -1.44543,1.60232 -2.52628,3.71004 -3.52148,5.45704 -4.1252,6.78363 -9.31463,13.11445 -16.01368,17.49414 -4.55055,3.02965 -10.2404,4.84781 -15.69921,3.65234 -5.04659,-1.18645 -9.36074,-4.29392 -13.28281,-7.55453 -7.82423,-6.80098 -13.3417,-15.81257 -17.71143,-25.113 -0.52778,-1.15047 -1.04153,-2.25822 -1.50563,-3.34797 -1.40251,-3.20783 -2.67794,-6.46895 -3.89271,-9.75208 -0.50802,-1.40191 -1.09564,-3.01992 -1.60641,-4.51474 -4.06123,-11.64454 -7.52962,-23.52156 -10.47603,-35.51976 -2.89678,-11.82538 -5.3405,-23.83571 -7.3888,-35.90379 -3.10662,-18.33995 -5.38822,-36.85697 -7.10878,-55.42616 -0.69772,-7.66419 -1.264,-15.35903 -1.79108,-23.06133 14.05964,-4.92351 27.61016,-11.86413 38.80423,-21.8039 11.36347,-9.98244 19.85606,-23.17915 24.24715,-37.65263 2.68339,-8.55035 4.42792,-17.58115 3.53651,-26.56691 -0.68897,-6.29775 -3.14068,-12.66323 -7.94778,-16.95901 -4.84087,-4.34735 -11.43502,-6.54301 -17.90038,-6.43678 -4.58379,0.15367 -9.1655,2.28197 -11.87288,6.0508 -3.29389,4.3416 -4.2731,9.8881 -4.79494,15.18269 -0.38587,3.97359 -0.38759,7.97265 -0.73206,11.94941 -0.10944,1.33092 -0.30224,2.88834 -0.55274,4.29297 -1.5085,8.67794 -4.76057,17.1455 -10.10156,24.19922 -0.25668,0.33931 -0.74278,0.97565 -1.10476,1.41458 -3.6678,4.56797 -8.13729,8.4514 -13.00657,11.69089 -0.5462,-20.60455 -0.37521,-41.22309 0.23438,-61.82422 0.49646,-16.66883 1.25618,-33.35579 2.47506,-50.00711 2.49878,-35.398859 6.30342,-70.702147 8.09081,-106.158859 0.16908,-3.2514 0.66234,-6.751719 -0.94673,-9.750047 -1.98357,-3.885916 -5.99957,-6.2598042 -10.09163,-7.3796855 -3.2723,-0.9438416 -6.69548,-1.2345642 -10.09001,-1.1945329 z m -31.75,156.7031244 c -1.42264,31.70268 -1.69183,63.46815 -0.45313,95.18164 -10.1153,2.07194 -20.49117,3.56425 -30.77109,5.00478 -1.228,0.17289 -2.45599,0.34577 -3.68399,0.51866 5.16526,-14.19048 9.97987,-28.50634 14.63543,-42.87125 7.34382,-22.80656 14.04431,-45.8114 20.77864,-68.80453 -0.16862,3.6569 -0.33724,7.3138 -0.50586,10.9707 z M 146.36133,270.47266 c 1.47902,-0.0835 2.91827,0.88223 3.36169,2.3023 1.48563,3.36641 1.35526,7.14457 1.29098,10.74481 -0.33284,6.61169 -1.63798,13.12656 -3.14291,19.55835 -0.45105,1.85683 -0.96746,3.90479 -1.48968,5.82392 -1.04417,3.85838 -2.18186,7.63689 -3.38337,11.37645 -1.89477,5.86353 -3.86868,11.60975 -6.08619,17.34265 -0.71562,2.11916 -1.81963,4.13398 -2.12669,6.37105 -0.41406,3.67515 1.9774,7.27488 5.31057,8.71839 4.51567,1.99798 9.76037,1.84426 14.39288,0.33203 2.24102,-0.78324 4.1941,-2.23985 5.72433,-4.03787 2.87444,-2.84867 4.70679,-6.5333 7.42227,-9.51848 9.04715,-10.78506 19.29705,-20.7728 31.41652,-28.06366 3.72638,-2.26311 7.58406,-4.30836 11.54202,-6.13549 -10.61821,24.92067 -22.17191,49.50407 -35.95168,72.85076 -5.47116,9.23213 -11.34011,18.24253 -17.85691,26.77424 -1.19513,1.55504 -2.52773,3.25289 -3.82522,4.82641 -1.06605,1.30563 -2.10637,2.54105 -3.17584,3.76461 -6.40246,7.27242 -13.47833,14.14508 -21.9091,19.03398 -4.85161,2.74299 -10.24919,4.85045 -15.88,4.98518 -3.00474,-0.0702 -5.6455,-2.00402 -7.2513,-4.44809 -0.6356,-0.90412 -1.17608,-1.87052 -1.66362,-2.86131 -0.14375,-0.29478 -0.4731,-0.9965 -0.66249,-1.46628 -2.857679,-6.58183 -3.96411,-13.75367 -4.525012,-20.85989 -0.05612,-0.84166 -0.143924,-2.10422 -0.207031,-2.95899 -0.201487,-3.4107 -0.360401,-6.78278 -0.405303,-10.15192 -0.05957,-3.70961 -0.0052,-7.41014 0.140963,-11.06349 0.250793,-6.02306 0.775714,-12.06136 1.576509,-18.08767 1.321304,-9.90917 3.423094,-19.91615 6.267494,-29.58677 0.75554,-2.59328 1.57428,-5.16959 2.43401,-7.6746 1.045,-3.02762 2.14664,-6.03735 3.2946,-8.9619 4.40874,-11.18677 9.74146,-22.23737 16.24719,-32.4563 2.92662,-4.53172 6.14034,-8.96097 10.17901,-12.57325 2.25095,-2.0189 4.98107,-3.80677 8.10368,-3.87686 0.27905,-0.0188 0.55799,-0.0246 0.83763,-0.0223 z" />
  </g>
</svg>
